<svg width="1363" height="163" viewBox="0 0 1363 163" fill="none" xmlns="http://www.w3.org/2000/svg">
<path d="M15 0.5H36.5V162.5H15C6.99187 162.5 0.5 156.008 0.5 148V15L0.504883 14.626C0.703274 6.79071 7.11692 0.5 15 0.5Z" fill="#171717" stroke="white"/>
<rect width="1097" height="163" transform="translate(37)" fill="#F0F0F0"/>
<path d="M101.906 53.9219L94.3945 51.2383V48.0859L104.602 52.375V54.6367L101.906 53.9219ZM94.3945 56.1719L101.918 53.4297L104.602 52.7852V55.0352L94.3945 59.3242V56.1719ZM119.051 57.4375L123.07 43.9375H126.984L121.043 61H118.465L119.051 57.4375ZM115.348 43.9375L119.355 57.4375L119.965 61H117.363L111.457 43.9375H115.348ZM133.688 61.2344C132.703 61.2344 131.82 61.0781 131.039 60.7656C130.258 60.4453 129.594 60.0039 129.047 59.4414C128.508 58.8789 128.094 58.2266 127.805 57.4844C127.516 56.7344 127.371 55.9375 127.371 55.0938V54.625C127.371 53.6641 127.508 52.7852 127.781 51.9883C128.055 51.1914 128.445 50.5 128.953 49.9141C129.469 49.3281 130.094 48.8789 130.828 48.5664C131.562 48.2461 132.391 48.0859 133.312 48.0859C134.211 48.0859 135.008 48.2344 135.703 48.5312C136.398 48.8281 136.98 49.25 137.449 49.7969C137.926 50.3438 138.285 51 138.527 51.7656C138.77 52.5234 138.891 53.3672 138.891 54.2969V55.7031H128.812V53.4531H135.574V53.1953C135.574 52.7266 135.488 52.3086 135.316 51.9414C135.152 51.5664 134.902 51.2695 134.566 51.0508C134.23 50.832 133.801 50.7227 133.277 50.7227C132.832 50.7227 132.449 50.8203 132.129 51.0156C131.809 51.2109 131.547 51.4844 131.344 51.8359C131.148 52.1875 131 52.6016 130.898 53.0781C130.805 53.5469 130.758 54.0625 130.758 54.625V55.0938C130.758 55.6016 130.828 56.0703 130.969 56.5C131.117 56.9297 131.324 57.3008 131.59 57.6133C131.863 57.9258 132.191 58.168 132.574 58.3398C132.965 58.5117 133.406 58.5977 133.898 58.5977C134.508 58.5977 135.074 58.4805 135.598 58.2461C136.129 58.0039 136.586 57.6406 136.969 57.1562L138.609 58.9375C138.344 59.3203 137.98 59.6875 137.52 60.0391C137.066 60.3906 136.52 60.6797 135.879 60.9062C135.238 61.125 134.508 61.2344 133.688 61.2344ZM144.188 51.0859V61H140.812V48.3203H143.988L144.188 51.0859ZM148.008 48.2383L147.949 51.3672C147.785 51.3438 147.586 51.3242 147.352 51.3086C147.125 51.2852 146.918 51.2734 146.73 51.2734C146.254 51.2734 145.84 51.3359 145.488 51.4609C145.145 51.5781 144.855 51.7539 144.621 51.9883C144.395 52.2227 144.223 52.5078 144.105 52.8438C143.996 53.1797 143.934 53.5625 143.918 53.9922L143.238 53.7812C143.238 52.9609 143.32 52.207 143.484 51.5195C143.648 50.8242 143.887 50.2188 144.199 49.7031C144.52 49.1875 144.91 48.7891 145.371 48.5078C145.832 48.2266 146.359 48.0859 146.953 48.0859C147.141 48.0859 147.332 48.1016 147.527 48.1328C147.723 48.1562 147.883 48.1914 148.008 48.2383ZM156.457 57.4961C156.457 57.2539 156.387 57.0352 156.246 56.8398C156.105 56.6445 155.844 56.4648 155.461 56.3008C155.086 56.1289 154.543 55.9727 153.832 55.832C153.191 55.6914 152.594 55.5156 152.039 55.3047C151.492 55.0859 151.016 54.8242 150.609 54.5195C150.211 54.2148 149.898 53.8555 149.672 53.4414C149.445 53.0195 149.332 52.5391 149.332 52C149.332 51.4688 149.445 50.9688 149.672 50.5C149.906 50.0312 150.238 49.6172 150.668 49.2578C151.105 48.8906 151.637 48.6055 152.262 48.4023C152.895 48.1914 153.605 48.0859 154.395 48.0859C155.496 48.0859 156.441 48.2617 157.23 48.6133C158.027 48.9648 158.637 49.4492 159.059 50.0664C159.488 50.6758 159.703 51.3711 159.703 52.1523H156.328C156.328 51.8242 156.258 51.5312 156.117 51.2734C155.984 51.0078 155.773 50.8008 155.484 50.6523C155.203 50.4961 154.836 50.418 154.383 50.418C154.008 50.418 153.684 50.4844 153.41 50.6172C153.137 50.7422 152.926 50.9141 152.777 51.1328C152.637 51.3438 152.566 51.5781 152.566 51.8359C152.566 52.0312 152.605 52.207 152.684 52.3633C152.77 52.5117 152.906 52.6484 153.094 52.7734C153.281 52.8984 153.523 53.0156 153.82 53.125C154.125 53.2266 154.5 53.3203 154.945 53.4062C155.859 53.5938 156.676 53.8398 157.395 54.1445C158.113 54.4414 158.684 54.8477 159.105 55.3633C159.527 55.8711 159.738 56.5391 159.738 57.3672C159.738 57.9297 159.613 58.4453 159.363 58.9141C159.113 59.3828 158.754 59.793 158.285 60.1445C157.816 60.4883 157.254 60.7578 156.598 60.9531C155.949 61.1406 155.219 61.2344 154.406 61.2344C153.227 61.2344 152.227 61.0234 151.406 60.6016C150.594 60.1797 149.977 59.6445 149.555 58.9961C149.141 58.3398 148.934 57.668 148.934 56.9805H152.133C152.148 57.4414 152.266 57.8125 152.484 58.0938C152.711 58.375 152.996 58.5781 153.34 58.7031C153.691 58.8281 154.07 58.8906 154.477 58.8906C154.914 58.8906 155.277 58.832 155.566 58.7148C155.855 58.5898 156.074 58.4258 156.223 58.2227C156.379 58.0117 156.457 57.7695 156.457 57.4961ZM169.43 57.9648V48.3203H172.805V61H169.629L169.43 57.9648ZM169.805 55.3633L170.801 55.3398C170.801 56.1836 170.703 56.9688 170.508 57.6953C170.312 58.4141 170.02 59.0391 169.629 59.5703C169.238 60.0938 168.746 60.5039 168.152 60.8008C167.559 61.0898 166.859 61.2344 166.055 61.2344C165.438 61.2344 164.867 61.1484 164.344 60.9766C163.828 60.7969 163.383 60.5195 163.008 60.1445C162.641 59.7617 162.352 59.2734 162.141 58.6797C161.938 58.0781 161.836 57.3555 161.836 56.5117V48.3203H165.211V56.5352C165.211 56.9102 165.254 57.2266 165.34 57.4844C165.434 57.7422 165.562 57.9531 165.727 58.1172C165.891 58.2812 166.082 58.3984 166.301 58.4688C166.527 58.5391 166.777 58.5742 167.051 58.5742C167.746 58.5742 168.293 58.4336 168.691 58.1523C169.098 57.8711 169.383 57.4883 169.547 57.0039C169.719 56.5117 169.805 55.9648 169.805 55.3633ZM182.238 57.4961C182.238 57.2539 182.168 57.0352 182.027 56.8398C181.887 56.6445 181.625 56.4648 181.242 56.3008C180.867 56.1289 180.324 55.9727 179.613 55.832C178.973 55.6914 178.375 55.5156 177.82 55.3047C177.273 55.0859 176.797 54.8242 176.391 54.5195C175.992 54.2148 175.68 53.8555 175.453 53.4414C175.227 53.0195 175.113 52.5391 175.113 52C175.113 51.4688 175.227 50.9688 175.453 50.5C175.688 50.0312 176.02 49.6172 176.449 49.2578C176.887 48.8906 177.418 48.6055 178.043 48.4023C178.676 48.1914 179.387 48.0859 180.176 48.0859C181.277 48.0859 182.223 48.2617 183.012 48.6133C183.809 48.9648 184.418 49.4492 184.84 50.0664C185.27 50.6758 185.484 51.3711 185.484 52.1523H182.109C182.109 51.8242 182.039 51.5312 181.898 51.2734C181.766 51.0078 181.555 50.8008 181.266 50.6523C180.984 50.4961 180.617 50.418 180.164 50.418C179.789 50.418 179.465 50.4844 179.191 50.6172C178.918 50.7422 178.707 50.9141 178.559 51.1328C178.418 51.3438 178.348 51.5781 178.348 51.8359C178.348 52.0312 178.387 52.207 178.465 52.3633C178.551 52.5117 178.688 52.6484 178.875 52.7734C179.062 52.8984 179.305 53.0156 179.602 53.125C179.906 53.2266 180.281 53.3203 180.727 53.4062C181.641 53.5938 182.457 53.8398 183.176 54.1445C183.895 54.4414 184.465 54.8477 184.887 55.3633C185.309 55.8711 185.52 56.5391 185.52 57.3672C185.52 57.9297 185.395 58.4453 185.145 58.9141C184.895 59.3828 184.535 59.793 184.066 60.1445C183.598 60.4883 183.035 60.7578 182.379 60.9531C181.73 61.1406 181 61.2344 180.188 61.2344C179.008 61.2344 178.008 61.0234 177.188 60.6016C176.375 60.1797 175.758 59.6445 175.336 58.9961C174.922 58.3398 174.715 57.668 174.715 56.9805H177.914C177.93 57.4414 178.047 57.8125 178.266 58.0938C178.492 58.375 178.777 58.5781 179.121 58.7031C179.473 58.8281 179.852 58.8906 180.258 58.8906C180.695 58.8906 181.059 58.832 181.348 58.7148C181.637 58.5898 181.855 58.4258 182.004 58.2227C182.16 58.0117 182.238 57.7695 182.238 57.4961ZM194.859 46.8555L190.219 61H186.48L192.82 43.9375H195.199L194.859 46.8555ZM198.715 61L194.062 46.8555L193.688 43.9375H196.09L202.465 61H198.715ZM198.504 54.6484V57.4023H189.492V54.6484H198.504ZM207.785 43.9375V61H204.281V43.9375H207.785Z" fill="#888888"/>
<path d="M106.688 119H99.1172L99.1641 112.672H106.688C108.25 112.672 109.57 112.297 110.648 111.547C111.742 110.797 112.57 109.68 113.133 108.195C113.711 106.695 114 104.852 114 102.664V101.188C114 99.5469 113.836 98.1094 113.508 96.875C113.195 95.625 112.727 94.5859 112.102 93.7578C111.477 92.9141 110.695 92.2812 109.758 91.8594C108.836 91.4375 107.773 91.2266 106.57 91.2266H98.9766V84.875H106.57C108.883 84.875 111 85.2734 112.922 86.0703C114.859 86.8516 116.531 87.9766 117.938 89.4453C119.359 90.8984 120.453 92.625 121.219 94.625C122 96.6094 122.391 98.8125 122.391 101.234V102.664C122.391 105.07 122 107.273 121.219 109.273C120.453 111.273 119.367 113 117.961 114.453C116.555 115.906 114.891 117.031 112.969 117.828C111.062 118.609 108.969 119 106.688 119ZM103.828 84.875V119H95.6016V84.875H103.828ZM138.586 119.469C136.523 119.469 134.68 119.148 133.055 118.508C131.43 117.852 130.055 116.953 128.93 115.812C127.82 114.672 126.969 113.359 126.375 111.875C125.797 110.391 125.508 108.82 125.508 107.164V106.273C125.508 104.414 125.766 102.695 126.281 101.117C126.797 99.5234 127.562 98.1328 128.578 96.9453C129.594 95.7578 130.867 94.8359 132.398 94.1797C133.93 93.5078 135.711 93.1719 137.742 93.1719C139.539 93.1719 141.148 93.4609 142.57 94.0391C143.992 94.6172 145.195 95.4453 146.18 96.5234C147.18 97.6016 147.938 98.9062 148.453 100.438C148.984 101.969 149.25 103.688 149.25 105.594V108.805H128.531V103.859H141.539V103.25C141.555 102.406 141.406 101.688 141.094 101.094C140.797 100.5 140.359 100.047 139.781 99.7344C139.203 99.4219 138.5 99.2656 137.672 99.2656C136.812 99.2656 136.102 99.4531 135.539 99.8281C134.992 100.203 134.562 100.719 134.25 101.375C133.953 102.016 133.742 102.758 133.617 103.602C133.492 104.445 133.43 105.336 133.43 106.273V107.164C133.43 108.102 133.555 108.953 133.805 109.719C134.07 110.484 134.445 111.141 134.93 111.688C135.43 112.219 136.023 112.633 136.711 112.93C137.414 113.227 138.211 113.375 139.102 113.375C140.18 113.375 141.242 113.172 142.289 112.766C143.336 112.359 144.234 111.688 144.984 110.75L148.57 115.016C148.055 115.75 147.32 116.461 146.367 117.148C145.43 117.836 144.305 118.398 142.992 118.836C141.68 119.258 140.211 119.469 138.586 119.469ZM160.43 99.0078V119H152.531V93.6406H159.938L160.43 99.0078ZM159.469 105.453L157.664 105.5C157.664 103.719 157.875 102.078 158.297 100.578C158.719 99.0781 159.344 97.7734 160.172 96.6641C161 95.5547 162.016 94.6953 163.219 94.0859C164.438 93.4766 165.844 93.1719 167.438 93.1719C168.547 93.1719 169.555 93.3438 170.461 93.6875C171.367 94.0156 172.148 94.5391 172.805 95.2578C173.461 95.9609 173.961 96.8828 174.305 98.0234C174.664 99.1484 174.844 100.5 174.844 102.078V119H166.945V103.086C166.945 102.008 166.82 101.195 166.57 100.648C166.336 100.102 165.992 99.7344 165.539 99.5469C165.086 99.3594 164.531 99.2656 163.875 99.2656C163.188 99.2656 162.57 99.4219 162.023 99.7344C161.477 100.047 161.008 100.484 160.617 101.047C160.242 101.594 159.953 102.242 159.75 102.992C159.562 103.742 159.469 104.562 159.469 105.453ZM173.953 105.453L171.75 105.5C171.75 103.719 171.945 102.078 172.336 100.578C172.742 99.0781 173.344 97.7734 174.141 96.6641C174.953 95.5547 175.961 94.6953 177.164 94.0859C178.367 93.4766 179.766 93.1719 181.359 93.1719C182.516 93.1719 183.578 93.3438 184.547 93.6875C185.516 94.0312 186.352 94.5859 187.055 95.3516C187.758 96.1172 188.305 97.1328 188.695 98.3984C189.086 99.6484 189.281 101.195 189.281 103.039V119H181.359V103.039C181.359 101.992 181.234 101.203 180.984 100.672C180.75 100.125 180.406 99.7578 179.953 99.5703C179.5 99.3672 178.961 99.2656 178.336 99.2656C177.586 99.2656 176.938 99.4219 176.391 99.7344C175.844 100.047 175.383 100.484 175.008 101.047C174.648 101.594 174.383 102.242 174.211 102.992C174.039 103.742 173.953 104.562 173.953 105.453ZM192.82 106.578V106.086C192.82 104.227 193.086 102.516 193.617 100.953C194.148 99.375 194.93 98.0078 195.961 96.8516C196.992 95.6953 198.266 94.7969 199.781 94.1562C201.297 93.5 203.047 93.1719 205.031 93.1719C207.031 93.1719 208.789 93.5 210.305 94.1562C211.836 94.7969 213.117 95.6953 214.148 96.8516C215.18 98.0078 215.961 99.375 216.492 100.953C217.023 102.516 217.289 104.227 217.289 106.086V106.578C217.289 108.422 217.023 110.133 216.492 111.711C215.961 113.273 215.18 114.641 214.148 115.812C213.117 116.969 211.844 117.867 210.328 118.508C208.812 119.148 207.062 119.469 205.078 119.469C203.094 119.469 201.336 119.148 199.805 118.508C198.273 117.867 196.992 116.969 195.961 115.812C194.93 114.641 194.148 113.273 193.617 111.711C193.086 110.133 192.82 108.422 192.82 106.578ZM200.719 106.086V106.578C200.719 107.531 200.789 108.422 200.93 109.25C201.07 110.078 201.305 110.805 201.633 111.43C201.961 112.039 202.406 112.516 202.969 112.859C203.531 113.203 204.234 113.375 205.078 113.375C205.906 113.375 206.594 113.203 207.141 112.859C207.703 112.516 208.148 112.039 208.477 111.43C208.805 110.805 209.039 110.078 209.18 109.25C209.32 108.422 209.391 107.531 209.391 106.578V106.086C209.391 105.164 209.32 104.297 209.18 103.484C209.039 102.656 208.805 101.93 208.477 101.305C208.148 100.664 207.703 100.164 207.141 99.8047C206.578 99.4453 205.875 99.2656 205.031 99.2656C204.203 99.2656 203.508 99.4453 202.945 99.8047C202.398 100.164 201.961 100.664 201.633 101.305C201.305 101.93 201.07 102.656 200.93 103.484C200.789 104.297 200.719 105.164 200.719 106.086Z" fill="black"/>
<path d="M1348 0.5C1356.01 0.5 1362.5 6.99187 1362.5 15V148C1362.5 156.008 1356.01 162.5 1348 162.5H1134.5V0.5H1348Z" fill="#171717"/>
<path d="M1348 0.5C1356.01 0.5 1362.5 6.99187 1362.5 15V148C1362.5 156.008 1356.01 162.5 1348 162.5H1134.5V0.5H1348Z" stroke="white"/>
<path d="M1280.07 47.5H1216.93L1214.5 49.9286V113.071L1216.93 115.5H1280.07L1282.5 113.071V49.9286L1280.07 47.5ZM1277.64 110.643H1233.93V100.929H1245.1C1246.56 103.843 1249.96 105.786 1253.36 105.786C1258.7 105.786 1263.07 101.414 1263.07 96.0714C1263.07 90.7286 1258.7 86.3571 1253.36 86.3571C1248.01 86.3571 1243.64 90.7286 1243.64 96.0714H1229.07V110.643H1219.36V52.3571H1229.07V63.5286C1226.16 64.9857 1224.21 68.3857 1224.21 71.7857C1224.21 77.1286 1228.59 81.5 1233.93 81.5C1239.27 81.5 1243.64 77.1286 1243.64 71.7857H1253.36C1253.36 77.1286 1257.73 81.5 1263.07 81.5C1268.41 81.5 1272.79 77.1286 1272.79 71.7857C1272.79 66.4429 1268.41 62.0714 1263.07 62.0714C1259.67 62.0714 1256.27 64.0143 1254.81 66.9286H1242.19C1240.73 64.0143 1237.33 62.0714 1233.93 62.0714V52.3571H1277.64V110.643ZM1248.5 96.0714C1248.5 93.1571 1250.44 91.2143 1253.36 91.2143C1256.27 91.2143 1258.21 93.1571 1258.21 96.0714C1258.21 98.9857 1256.27 100.929 1253.36 100.929C1250.44 100.929 1248.5 98.9857 1248.5 96.0714ZM1233.93 66.9286C1236.84 66.9286 1238.79 68.8714 1238.79 71.7857C1238.79 74.7 1236.84 76.6429 1233.93 76.6429C1231.01 76.6429 1229.07 74.7 1229.07 71.7857C1229.07 68.8714 1231.01 66.9286 1233.93 66.9286ZM1263.07 66.9286C1265.99 66.9286 1267.93 68.8714 1267.93 71.7857C1267.93 74.7 1265.99 76.6429 1263.07 76.6429C1260.16 76.6429 1258.21 74.7 1258.21 71.7857C1258.21 68.8714 1260.16 66.9286 1263.07 66.9286Z" fill="white"/>
</svg>
