<svg width="1363" height="163" viewBox="0 0 1363 163" fill="none" xmlns="http://www.w3.org/2000/svg">
<path d="M0 15C0 6.71573 6.71573 0 15 0H37V163H15C6.71573 163 0 156.284 0 148V15Z" fill="#171717"/>
<rect width="1097" height="163" transform="translate(37)" fill="#F0F0F0"/>
<path d="M101.906 53.9219L94.3945 51.2383V48.0859L104.602 52.375V54.6367L101.906 53.9219ZM94.3945 56.1719L101.918 53.4297L104.602 52.7852V55.0352L94.3945 59.3242V56.1719ZM119.051 57.4375L123.07 43.9375H126.984L121.043 61H118.465L119.051 57.4375ZM115.348 43.9375L119.355 57.4375L119.965 61H117.363L111.457 43.9375H115.348ZM133.688 61.2344C132.703 61.2344 131.82 61.0781 131.039 60.7656C130.258 60.4453 129.594 60.0039 129.047 59.4414C128.508 58.8789 128.094 58.2266 127.805 57.4844C127.516 56.7344 127.371 55.9375 127.371 55.0938V54.625C127.371 53.6641 127.508 52.7852 127.781 51.9883C128.055 51.1914 128.445 50.5 128.953 49.9141C129.469 49.3281 130.094 48.8789 130.828 48.5664C131.562 48.2461 132.391 48.0859 133.312 48.0859C134.211 48.0859 135.008 48.2344 135.703 48.5312C136.398 48.8281 136.98 49.25 137.449 49.7969C137.926 50.3438 138.285 51 138.527 51.7656C138.77 52.5234 138.891 53.3672 138.891 54.2969V55.7031H128.812V53.4531H135.574V53.1953C135.574 52.7266 135.488 52.3086 135.316 51.9414C135.152 51.5664 134.902 51.2695 134.566 51.0508C134.23 50.832 133.801 50.7227 133.277 50.7227C132.832 50.7227 132.449 50.8203 132.129 51.0156C131.809 51.2109 131.547 51.4844 131.344 51.8359C131.148 52.1875 131 52.6016 130.898 53.0781C130.805 53.5469 130.758 54.0625 130.758 54.625V55.0938C130.758 55.6016 130.828 56.0703 130.969 56.5C131.117 56.9297 131.324 57.3008 131.59 57.6133C131.863 57.9258 132.191 58.168 132.574 58.3398C132.965 58.5117 133.406 58.5977 133.898 58.5977C134.508 58.5977 135.074 58.4805 135.598 58.2461C136.129 58.0039 136.586 57.6406 136.969 57.1562L138.609 58.9375C138.344 59.3203 137.98 59.6875 137.52 60.0391C137.066 60.3906 136.52 60.6797 135.879 60.9062C135.238 61.125 134.508 61.2344 133.688 61.2344ZM144.188 51.0859V61H140.812V48.3203H143.988L144.188 51.0859ZM148.008 48.2383L147.949 51.3672C147.785 51.3438 147.586 51.3242 147.352 51.3086C147.125 51.2852 146.918 51.2734 146.73 51.2734C146.254 51.2734 145.84 51.3359 145.488 51.4609C145.145 51.5781 144.855 51.7539 144.621 51.9883C144.395 52.2227 144.223 52.5078 144.105 52.8438C143.996 53.1797 143.934 53.5625 143.918 53.9922L143.238 53.7812C143.238 52.9609 143.32 52.207 143.484 51.5195C143.648 50.8242 143.887 50.2188 144.199 49.7031C144.52 49.1875 144.91 48.7891 145.371 48.5078C145.832 48.2266 146.359 48.0859 146.953 48.0859C147.141 48.0859 147.332 48.1016 147.527 48.1328C147.723 48.1562 147.883 48.1914 148.008 48.2383ZM156.457 57.4961C156.457 57.2539 156.387 57.0352 156.246 56.8398C156.105 56.6445 155.844 56.4648 155.461 56.3008C155.086 56.1289 154.543 55.9727 153.832 55.832C153.191 55.6914 152.594 55.5156 152.039 55.3047C151.492 55.0859 151.016 54.8242 150.609 54.5195C150.211 54.2148 149.898 53.8555 149.672 53.4414C149.445 53.0195 149.332 52.5391 149.332 52C149.332 51.4688 149.445 50.9688 149.672 50.5C149.906 50.0312 150.238 49.6172 150.668 49.2578C151.105 48.8906 151.637 48.6055 152.262 48.4023C152.895 48.1914 153.605 48.0859 154.395 48.0859C155.496 48.0859 156.441 48.2617 157.23 48.6133C158.027 48.9648 158.637 49.4492 159.059 50.0664C159.488 50.6758 159.703 51.3711 159.703 52.1523H156.328C156.328 51.8242 156.258 51.5312 156.117 51.2734C155.984 51.0078 155.773 50.8008 155.484 50.6523C155.203 50.4961 154.836 50.418 154.383 50.418C154.008 50.418 153.684 50.4844 153.41 50.6172C153.137 50.7422 152.926 50.9141 152.777 51.1328C152.637 51.3438 152.566 51.5781 152.566 51.8359C152.566 52.0312 152.605 52.207 152.684 52.3633C152.77 52.5117 152.906 52.6484 153.094 52.7734C153.281 52.8984 153.523 53.0156 153.82 53.125C154.125 53.2266 154.5 53.3203 154.945 53.4062C155.859 53.5938 156.676 53.8398 157.395 54.1445C158.113 54.4414 158.684 54.8477 159.105 55.3633C159.527 55.8711 159.738 56.5391 159.738 57.3672C159.738 57.9297 159.613 58.4453 159.363 58.9141C159.113 59.3828 158.754 59.793 158.285 60.1445C157.816 60.4883 157.254 60.7578 156.598 60.9531C155.949 61.1406 155.219 61.2344 154.406 61.2344C153.227 61.2344 152.227 61.0234 151.406 60.6016C150.594 60.1797 149.977 59.6445 149.555 58.9961C149.141 58.3398 148.934 57.668 148.934 56.9805H152.133C152.148 57.4414 152.266 57.8125 152.484 58.0938C152.711 58.375 152.996 58.5781 153.34 58.7031C153.691 58.8281 154.07 58.8906 154.477 58.8906C154.914 58.8906 155.277 58.832 155.566 58.7148C155.855 58.5898 156.074 58.4258 156.223 58.2227C156.379 58.0117 156.457 57.7695 156.457 57.4961ZM169.43 57.9648V48.3203H172.805V61H169.629L169.43 57.9648ZM169.805 55.3633L170.801 55.3398C170.801 56.1836 170.703 56.9688 170.508 57.6953C170.312 58.4141 170.02 59.0391 169.629 59.5703C169.238 60.0938 168.746 60.5039 168.152 60.8008C167.559 61.0898 166.859 61.2344 166.055 61.2344C165.438 61.2344 164.867 61.1484 164.344 60.9766C163.828 60.7969 163.383 60.5195 163.008 60.1445C162.641 59.7617 162.352 59.2734 162.141 58.6797C161.938 58.0781 161.836 57.3555 161.836 56.5117V48.3203H165.211V56.5352C165.211 56.9102 165.254 57.2266 165.34 57.4844C165.434 57.7422 165.562 57.9531 165.727 58.1172C165.891 58.2812 166.082 58.3984 166.301 58.4688C166.527 58.5391 166.777 58.5742 167.051 58.5742C167.746 58.5742 168.293 58.4336 168.691 58.1523C169.098 57.8711 169.383 57.4883 169.547 57.0039C169.719 56.5117 169.805 55.9648 169.805 55.3633ZM182.238 57.4961C182.238 57.2539 182.168 57.0352 182.027 56.8398C181.887 56.6445 181.625 56.4648 181.242 56.3008C180.867 56.1289 180.324 55.9727 179.613 55.832C178.973 55.6914 178.375 55.5156 177.82 55.3047C177.273 55.0859 176.797 54.8242 176.391 54.5195C175.992 54.2148 175.68 53.8555 175.453 53.4414C175.227 53.0195 175.113 52.5391 175.113 52C175.113 51.4688 175.227 50.9688 175.453 50.5C175.688 50.0312 176.02 49.6172 176.449 49.2578C176.887 48.8906 177.418 48.6055 178.043 48.4023C178.676 48.1914 179.387 48.0859 180.176 48.0859C181.277 48.0859 182.223 48.2617 183.012 48.6133C183.809 48.9648 184.418 49.4492 184.84 50.0664C185.27 50.6758 185.484 51.3711 185.484 52.1523H182.109C182.109 51.8242 182.039 51.5312 181.898 51.2734C181.766 51.0078 181.555 50.8008 181.266 50.6523C180.984 50.4961 180.617 50.418 180.164 50.418C179.789 50.418 179.465 50.4844 179.191 50.6172C178.918 50.7422 178.707 50.9141 178.559 51.1328C178.418 51.3438 178.348 51.5781 178.348 51.8359C178.348 52.0312 178.387 52.207 178.465 52.3633C178.551 52.5117 178.688 52.6484 178.875 52.7734C179.062 52.8984 179.305 53.0156 179.602 53.125C179.906 53.2266 180.281 53.3203 180.727 53.4062C181.641 53.5938 182.457 53.8398 183.176 54.1445C183.895 54.4414 184.465 54.8477 184.887 55.3633C185.309 55.8711 185.52 56.5391 185.52 57.3672C185.52 57.9297 185.395 58.4453 185.145 58.9141C184.895 59.3828 184.535 59.793 184.066 60.1445C183.598 60.4883 183.035 60.7578 182.379 60.9531C181.73 61.1406 181 61.2344 180.188 61.2344C179.008 61.2344 178.008 61.0234 177.188 60.6016C176.375 60.1797 175.758 59.6445 175.336 58.9961C174.922 58.3398 174.715 57.668 174.715 56.9805H177.914C177.93 57.4414 178.047 57.8125 178.266 58.0938C178.492 58.375 178.777 58.5781 179.121 58.7031C179.473 58.8281 179.852 58.8906 180.258 58.8906C180.695 58.8906 181.059 58.832 181.348 58.7148C181.637 58.5898 181.855 58.4258 182.004 58.2227C182.16 58.0117 182.238 57.7695 182.238 57.4961ZM194.859 46.8555L190.219 61H186.48L192.82 43.9375H195.199L194.859 46.8555ZM198.715 61L194.062 46.8555L193.688 43.9375H196.09L202.465 61H198.715ZM198.504 54.6484V57.4023H189.492V54.6484H198.504ZM207.785 43.9375V61H204.281V43.9375H207.785Z" fill="#888888"/>
<path d="M113.18 109.93C113.18 109.398 113.102 108.922 112.945 108.5C112.789 108.062 112.5 107.656 112.078 107.281C111.656 106.906 111.047 106.531 110.25 106.156C109.469 105.766 108.438 105.359 107.156 104.938C105.656 104.438 104.211 103.875 102.82 103.25C101.43 102.609 100.188 101.867 99.0938 101.023C98 100.164 97.1328 99.1641 96.4922 98.0234C95.8516 96.8672 95.5312 95.5234 95.5312 93.9922C95.5312 92.5234 95.8594 91.2031 96.5156 90.0312C97.1719 88.8438 98.0859 87.8359 99.2578 87.0078C100.445 86.1641 101.836 85.5234 103.43 85.0859C105.023 84.6328 106.766 84.4062 108.656 84.4062C111.156 84.4062 113.359 84.8438 115.266 85.7188C117.188 86.5781 118.688 87.8047 119.766 89.3984C120.859 90.9766 121.406 92.8438 121.406 95H113.227C113.227 94.1406 113.047 93.3828 112.688 92.7266C112.344 92.0703 111.82 91.5547 111.117 91.1797C110.414 90.8047 109.531 90.6172 108.469 90.6172C107.438 90.6172 106.57 90.7734 105.867 91.0859C105.164 91.3984 104.633 91.8203 104.273 92.3516C103.914 92.8672 103.734 93.4375 103.734 94.0625C103.734 94.5781 103.875 95.0469 104.156 95.4688C104.453 95.875 104.867 96.2578 105.398 96.6172C105.945 96.9766 106.602 97.3203 107.367 97.6484C108.148 97.9766 109.023 98.2969 109.992 98.6094C111.805 99.1875 113.414 99.8359 114.82 100.555C116.242 101.258 117.438 102.062 118.406 102.969C119.391 103.859 120.133 104.875 120.633 106.016C121.148 107.156 121.406 108.445 121.406 109.883C121.406 111.414 121.109 112.773 120.516 113.961C119.922 115.148 119.07 116.156 117.961 116.984C116.852 117.797 115.523 118.414 113.977 118.836C112.43 119.258 110.703 119.469 108.797 119.469C107.047 119.469 105.32 119.25 103.617 118.812C101.93 118.359 100.398 117.672 99.0234 116.75C97.6484 115.812 96.5469 114.617 95.7188 113.164C94.9062 111.695 94.5 109.953 94.5 107.938H102.75C102.75 108.938 102.883 109.781 103.148 110.469C103.414 111.156 103.805 111.711 104.32 112.133C104.836 112.539 105.469 112.836 106.219 113.023C106.969 113.195 107.828 113.281 108.797 113.281C109.844 113.281 110.688 113.133 111.328 112.836C111.969 112.523 112.438 112.117 112.734 111.617C113.031 111.102 113.18 110.539 113.18 109.93ZM133.055 116.023L139.617 93.6406H148.102L137.906 122.773C137.688 123.414 137.398 124.102 137.039 124.836C136.68 125.586 136.188 126.297 135.562 126.969C134.938 127.641 134.133 128.188 133.148 128.609C132.18 129.031 130.977 129.242 129.539 129.242C128.773 129.242 128.211 129.203 127.852 129.125C127.508 129.062 126.977 128.945 126.258 128.773V123.125C126.461 123.125 126.633 123.125 126.773 123.125C126.93 123.125 127.102 123.125 127.289 123.125C128.133 123.125 128.805 123.039 129.305 122.867C129.82 122.695 130.211 122.445 130.477 122.117C130.758 121.789 130.977 121.391 131.133 120.922L133.055 116.023ZM131.391 93.6406L136.383 111.383L137.25 119.75H131.953L122.93 93.6406H131.391ZM163.453 111.875C163.453 111.438 163.305 111.062 163.008 110.75C162.727 110.422 162.227 110.125 161.508 109.859C160.789 109.578 159.781 109.297 158.484 109.016C157.25 108.75 156.086 108.398 154.992 107.961C153.914 107.523 152.969 106.992 152.156 106.367C151.344 105.742 150.703 105 150.234 104.141C149.781 103.281 149.555 102.297 149.555 101.188C149.555 100.109 149.781 99.0938 150.234 98.1406C150.703 97.1719 151.383 96.3203 152.273 95.5859C153.18 94.8359 154.281 94.25 155.578 93.8281C156.875 93.3906 158.352 93.1719 160.008 93.1719C162.289 93.1719 164.258 93.5234 165.914 94.2266C167.57 94.9141 168.844 95.8828 169.734 97.1328C170.641 98.3672 171.094 99.7969 171.094 101.422H163.195C163.195 100.781 163.086 100.234 162.867 99.7812C162.664 99.3281 162.328 98.9844 161.859 98.75C161.391 98.5 160.766 98.375 159.984 98.375C159.438 98.375 158.938 98.4766 158.484 98.6797C158.047 98.8828 157.695 99.1641 157.43 99.5234C157.164 99.8828 157.031 100.305 157.031 100.789C157.031 101.133 157.109 101.445 157.266 101.727C157.438 101.992 157.695 102.242 158.039 102.477C158.383 102.695 158.82 102.898 159.352 103.086C159.883 103.258 160.523 103.414 161.273 103.555C162.977 103.867 164.57 104.312 166.055 104.891C167.539 105.469 168.742 106.289 169.664 107.352C170.602 108.414 171.07 109.844 171.07 111.641C171.07 112.766 170.812 113.805 170.297 114.758C169.781 115.695 169.039 116.523 168.07 117.242C167.102 117.945 165.938 118.492 164.578 118.883C163.219 119.273 161.688 119.469 159.984 119.469C157.562 119.469 155.516 119.039 153.844 118.18C152.172 117.305 150.906 116.211 150.047 114.898C149.203 113.57 148.781 112.227 148.781 110.867H156.141C156.172 111.648 156.359 112.289 156.703 112.789C157.062 113.289 157.539 113.656 158.133 113.891C158.727 114.125 159.414 114.242 160.195 114.242C160.914 114.242 161.508 114.141 161.977 113.938C162.461 113.734 162.828 113.461 163.078 113.117C163.328 112.758 163.453 112.344 163.453 111.875ZM188.133 93.6406V99.125H172.852V93.6406H188.133ZM176.062 87.3359H183.961V110.727C183.961 111.398 184.039 111.922 184.195 112.297C184.352 112.656 184.617 112.914 184.992 113.07C185.383 113.211 185.898 113.281 186.539 113.281C186.992 113.281 187.367 113.273 187.664 113.258C187.961 113.227 188.242 113.188 188.508 113.141V118.789C187.836 119.008 187.133 119.172 186.398 119.281C185.664 119.406 184.883 119.469 184.055 119.469C182.367 119.469 180.922 119.203 179.719 118.672C178.531 118.141 177.625 117.305 177 116.164C176.375 115.023 176.062 113.539 176.062 111.711V87.3359ZM203.555 119.469C201.492 119.469 199.648 119.148 198.023 118.508C196.398 117.852 195.023 116.953 193.898 115.812C192.789 114.672 191.938 113.359 191.344 111.875C190.766 110.391 190.477 108.82 190.477 107.164V106.273C190.477 104.414 190.734 102.695 191.25 101.117C191.766 99.5234 192.531 98.1328 193.547 96.9453C194.562 95.7578 195.836 94.8359 197.367 94.1797C198.898 93.5078 200.68 93.1719 202.711 93.1719C204.508 93.1719 206.117 93.4609 207.539 94.0391C208.961 94.6172 210.164 95.4453 211.148 96.5234C212.148 97.6016 212.906 98.9062 213.422 100.438C213.953 101.969 214.219 103.688 214.219 105.594V108.805H193.5V103.859H206.508V103.25C206.523 102.406 206.375 101.688 206.062 101.094C205.766 100.5 205.328 100.047 204.75 99.7344C204.172 99.4219 203.469 99.2656 202.641 99.2656C201.781 99.2656 201.07 99.4531 200.508 99.8281C199.961 100.203 199.531 100.719 199.219 101.375C198.922 102.016 198.711 102.758 198.586 103.602C198.461 104.445 198.398 105.336 198.398 106.273V107.164C198.398 108.102 198.523 108.953 198.773 109.719C199.039 110.484 199.414 111.141 199.898 111.688C200.398 112.219 200.992 112.633 201.68 112.93C202.383 113.227 203.18 113.375 204.07 113.375C205.148 113.375 206.211 113.172 207.258 112.766C208.305 112.359 209.203 111.688 209.953 110.75L213.539 115.016C213.023 115.75 212.289 116.461 211.336 117.148C210.398 117.836 209.273 118.398 207.961 118.836C206.648 119.258 205.18 119.469 203.555 119.469ZM225.398 99.0078V119H217.5V93.6406H224.906L225.398 99.0078ZM224.438 105.453L222.633 105.5C222.633 103.719 222.844 102.078 223.266 100.578C223.688 99.0781 224.312 97.7734 225.141 96.6641C225.969 95.5547 226.984 94.6953 228.188 94.0859C229.406 93.4766 230.812 93.1719 232.406 93.1719C233.516 93.1719 234.523 93.3438 235.43 93.6875C236.336 94.0156 237.117 94.5391 237.773 95.2578C238.43 95.9609 238.93 96.8828 239.273 98.0234C239.633 99.1484 239.812 100.5 239.812 102.078V119H231.914V103.086C231.914 102.008 231.789 101.195 231.539 100.648C231.305 100.102 230.961 99.7344 230.508 99.5469C230.055 99.3594 229.5 99.2656 228.844 99.2656C228.156 99.2656 227.539 99.4219 226.992 99.7344C226.445 100.047 225.977 100.484 225.586 101.047C225.211 101.594 224.922 102.242 224.719 102.992C224.531 103.742 224.438 104.562 224.438 105.453ZM238.922 105.453L236.719 105.5C236.719 103.719 236.914 102.078 237.305 100.578C237.711 99.0781 238.312 97.7734 239.109 96.6641C239.922 95.5547 240.93 94.6953 242.133 94.0859C243.336 93.4766 244.734 93.1719 246.328 93.1719C247.484 93.1719 248.547 93.3438 249.516 93.6875C250.484 94.0312 251.32 94.5859 252.023 95.3516C252.727 96.1172 253.273 97.1328 253.664 98.3984C254.055 99.6484 254.25 101.195 254.25 103.039V119H246.328V103.039C246.328 101.992 246.203 101.203 245.953 100.672C245.719 100.125 245.375 99.7578 244.922 99.5703C244.469 99.3672 243.93 99.2656 243.305 99.2656C242.555 99.2656 241.906 99.4219 241.359 99.7344C240.812 100.047 240.352 100.484 239.977 101.047C239.617 101.594 239.352 102.242 239.18 102.992C239.008 103.742 238.922 104.562 238.922 105.453ZM282.188 119H274.617L274.664 112.672H282.188C283.75 112.672 285.07 112.297 286.148 111.547C287.242 110.797 288.07 109.68 288.633 108.195C289.211 106.695 289.5 104.852 289.5 102.664V101.188C289.5 99.5469 289.336 98.1094 289.008 96.875C288.695 95.625 288.227 94.5859 287.602 93.7578C286.977 92.9141 286.195 92.2812 285.258 91.8594C284.336 91.4375 283.273 91.2266 282.07 91.2266H274.477V84.875H282.07C284.383 84.875 286.5 85.2734 288.422 86.0703C290.359 86.8516 292.031 87.9766 293.438 89.4453C294.859 90.8984 295.953 92.625 296.719 94.625C297.5 96.6094 297.891 98.8125 297.891 101.234V102.664C297.891 105.07 297.5 107.273 296.719 109.273C295.953 111.273 294.867 113 293.461 114.453C292.055 115.906 290.391 117.031 288.469 117.828C286.562 118.609 284.469 119 282.188 119ZM279.328 84.875V119H271.102V84.875H279.328ZM314.086 119.469C312.023 119.469 310.18 119.148 308.555 118.508C306.93 117.852 305.555 116.953 304.43 115.812C303.32 114.672 302.469 113.359 301.875 111.875C301.297 110.391 301.008 108.82 301.008 107.164V106.273C301.008 104.414 301.266 102.695 301.781 101.117C302.297 99.5234 303.062 98.1328 304.078 96.9453C305.094 95.7578 306.367 94.8359 307.898 94.1797C309.43 93.5078 311.211 93.1719 313.242 93.1719C315.039 93.1719 316.648 93.4609 318.07 94.0391C319.492 94.6172 320.695 95.4453 321.68 96.5234C322.68 97.6016 323.438 98.9062 323.953 100.438C324.484 101.969 324.75 103.688 324.75 105.594V108.805H304.031V103.859H317.039V103.25C317.055 102.406 316.906 101.688 316.594 101.094C316.297 100.5 315.859 100.047 315.281 99.7344C314.703 99.4219 314 99.2656 313.172 99.2656C312.312 99.2656 311.602 99.4531 311.039 99.8281C310.492 100.203 310.062 100.719 309.75 101.375C309.453 102.016 309.242 102.758 309.117 103.602C308.992 104.445 308.93 105.336 308.93 106.273V107.164C308.93 108.102 309.055 108.953 309.305 109.719C309.57 110.484 309.945 111.141 310.43 111.688C310.93 112.219 311.523 112.633 312.211 112.93C312.914 113.227 313.711 113.375 314.602 113.375C315.68 113.375 316.742 113.172 317.789 112.766C318.836 112.359 319.734 111.688 320.484 110.75L324.07 115.016C323.555 115.75 322.82 116.461 321.867 117.148C320.93 117.836 319.805 118.398 318.492 118.836C317.18 119.258 315.711 119.469 314.086 119.469ZM341.25 111.875C341.25 111.438 341.102 111.062 340.805 110.75C340.523 110.422 340.023 110.125 339.305 109.859C338.586 109.578 337.578 109.297 336.281 109.016C335.047 108.75 333.883 108.398 332.789 107.961C331.711 107.523 330.766 106.992 329.953 106.367C329.141 105.742 328.5 105 328.031 104.141C327.578 103.281 327.352 102.297 327.352 101.188C327.352 100.109 327.578 99.0938 328.031 98.1406C328.5 97.1719 329.18 96.3203 330.07 95.5859C330.977 94.8359 332.078 94.25 333.375 93.8281C334.672 93.3906 336.148 93.1719 337.805 93.1719C340.086 93.1719 342.055 93.5234 343.711 94.2266C345.367 94.9141 346.641 95.8828 347.531 97.1328C348.438 98.3672 348.891 99.7969 348.891 101.422H340.992C340.992 100.781 340.883 100.234 340.664 99.7812C340.461 99.3281 340.125 98.9844 339.656 98.75C339.188 98.5 338.562 98.375 337.781 98.375C337.234 98.375 336.734 98.4766 336.281 98.6797C335.844 98.8828 335.492 99.1641 335.227 99.5234C334.961 99.8828 334.828 100.305 334.828 100.789C334.828 101.133 334.906 101.445 335.062 101.727C335.234 101.992 335.492 102.242 335.836 102.477C336.18 102.695 336.617 102.898 337.148 103.086C337.68 103.258 338.32 103.414 339.07 103.555C340.773 103.867 342.367 104.312 343.852 104.891C345.336 105.469 346.539 106.289 347.461 107.352C348.398 108.414 348.867 109.844 348.867 111.641C348.867 112.766 348.609 113.805 348.094 114.758C347.578 115.695 346.836 116.523 345.867 117.242C344.898 117.945 343.734 118.492 342.375 118.883C341.016 119.273 339.484 119.469 337.781 119.469C335.359 119.469 333.312 119.039 331.641 118.18C329.969 117.305 328.703 116.211 327.844 114.898C327 113.57 326.578 112.227 326.578 110.867H333.938C333.969 111.648 334.156 112.289 334.5 112.789C334.859 113.289 335.336 113.656 335.93 113.891C336.523 114.125 337.211 114.242 337.992 114.242C338.711 114.242 339.305 114.141 339.773 113.938C340.258 113.734 340.625 113.461 340.875 113.117C341.125 112.758 341.25 112.344 341.25 111.875ZM360.914 93.6406V119H352.992V93.6406H360.914ZM352.523 87.1016C352.523 85.9766 352.93 85.0547 353.742 84.3359C354.555 83.6172 355.609 83.2578 356.906 83.2578C358.203 83.2578 359.258 83.6172 360.07 84.3359C360.883 85.0547 361.289 85.9766 361.289 87.1016C361.289 88.2266 360.883 89.1484 360.07 89.8672C359.258 90.5859 358.203 90.9453 356.906 90.9453C355.609 90.9453 354.555 90.5859 353.742 89.8672C352.93 89.1484 352.523 88.2266 352.523 87.1016ZM381.727 93.6406H388.898V118.016C388.898 120.359 388.359 122.344 387.281 123.969C386.203 125.609 384.695 126.852 382.758 127.695C380.836 128.555 378.586 128.984 376.008 128.984C374.867 128.984 373.703 128.836 372.516 128.539C371.328 128.258 370.219 127.836 369.188 127.273C368.156 126.711 367.289 126.016 366.586 125.188L369.891 120.547C370.531 121.266 371.336 121.875 372.305 122.375C373.273 122.891 374.414 123.148 375.727 123.148C376.867 123.148 377.82 122.945 378.586 122.539C379.367 122.133 379.961 121.539 380.367 120.758C380.773 119.992 380.977 119.062 380.977 117.969V99.6406L381.727 93.6406ZM364.875 106.625V106.133C364.875 104.211 365.109 102.461 365.578 100.883C366.062 99.2891 366.75 97.9219 367.641 96.7812C368.547 95.625 369.641 94.7344 370.922 94.1094C372.203 93.4844 373.648 93.1719 375.258 93.1719C376.992 93.1719 378.414 93.5078 379.523 94.1797C380.648 94.8359 381.547 95.7578 382.219 96.9453C382.906 98.1328 383.438 99.5234 383.812 101.117C384.203 102.695 384.531 104.398 384.797 106.227V106.812C384.531 108.531 384.164 110.156 383.695 111.688C383.242 113.203 382.648 114.547 381.914 115.719C381.18 116.891 380.258 117.812 379.148 118.484C378.055 119.141 376.742 119.469 375.211 119.469C373.617 119.469 372.18 119.148 370.898 118.508C369.633 117.867 368.547 116.969 367.641 115.812C366.75 114.656 366.062 113.297 365.578 111.734C365.109 110.172 364.875 108.469 364.875 106.625ZM372.773 106.133V106.625C372.773 107.578 372.859 108.461 373.031 109.273C373.219 110.086 373.5 110.805 373.875 111.43C374.25 112.039 374.711 112.516 375.258 112.859C375.82 113.203 376.477 113.375 377.227 113.375C378.367 113.375 379.289 113.133 379.992 112.648C380.695 112.164 381.203 111.477 381.516 110.586C381.828 109.695 381.961 108.648 381.914 107.445V105.594C381.945 104.562 381.875 103.656 381.703 102.875C381.531 102.078 381.258 101.414 380.883 100.883C380.523 100.352 380.039 99.9531 379.43 99.6875C378.836 99.4062 378.117 99.2656 377.273 99.2656C376.539 99.2656 375.891 99.4375 375.328 99.7812C374.766 100.125 374.297 100.609 373.922 101.234C373.547 101.844 373.258 102.57 373.055 103.414C372.867 104.242 372.773 105.148 372.773 106.133ZM401.203 99.0547V119H393.305V93.6406H400.711L401.203 99.0547ZM400.266 105.453L398.414 105.5C398.414 103.562 398.648 101.836 399.117 100.32C399.586 98.7891 400.25 97.4922 401.109 96.4297C401.969 95.3672 402.992 94.5625 404.18 94.0156C405.383 93.4531 406.719 93.1719 408.188 93.1719C409.359 93.1719 410.43 93.3438 411.398 93.6875C412.383 94.0312 413.227 94.5859 413.93 95.3516C414.648 96.1172 415.195 97.1328 415.57 98.3984C415.961 99.6484 416.156 101.195 416.156 103.039V119H408.211V103.016C408.211 102 408.07 101.227 407.789 100.695C407.508 100.148 407.102 99.7734 406.57 99.5703C406.039 99.3672 405.391 99.2656 404.625 99.2656C403.812 99.2656 403.125 99.4219 402.562 99.7344C402 100.047 401.547 100.484 401.203 101.047C400.875 101.594 400.633 102.242 400.477 102.992C400.336 103.742 400.266 104.562 400.266 105.453Z" fill="black"/>
<path d="M1134 0H1348C1356.28 0 1363 6.71573 1363 15V148C1363 156.284 1356.28 163 1348 163H1134V0Z" fill="#171717"/>
<path d="M1248.5 51.6667C1257.07 51.6667 1264.74 52.9908 1270.29 55.1784C1273.06 56.2717 1275.32 57.5902 1276.91 59.0895C1278.49 60.5911 1279.42 62.3052 1279.42 64.1667C1279.42 66.0281 1278.49 67.7423 1276.91 69.2438C1275.32 70.7432 1273.06 72.0617 1270.29 73.155C1264.74 75.3426 1257.07 76.6667 1248.5 76.6667C1239.93 76.6667 1232.26 75.3427 1226.71 73.155C1223.94 72.0616 1221.67 70.7433 1220.09 69.2438C1218.51 67.7423 1217.58 66.0281 1217.58 64.1667C1217.58 62.3052 1218.51 60.5911 1220.09 59.0895C1221.67 57.5901 1223.94 56.2717 1226.71 55.1784C1232.26 52.9907 1239.93 51.6667 1248.5 51.6667ZM1248.5 55.3337C1242.07 55.3337 1235.27 56.2868 1230.11 57.9147C1227.52 58.7295 1225.37 59.7039 1223.88 60.7917C1222.37 61.8874 1221.62 63.0284 1221.62 64.1667C1221.62 65.305 1222.37 66.446 1223.88 67.5417C1225.37 68.6295 1227.52 69.6039 1230.11 70.4186C1235.27 72.0466 1242.07 72.9997 1248.5 72.9997C1254.93 72.9997 1261.72 72.0466 1266.89 70.4186C1269.48 69.6038 1271.63 68.6296 1273.12 67.5417C1274.63 66.446 1275.37 65.305 1275.37 64.1667C1275.37 63.0284 1274.63 61.8874 1273.12 60.7917C1271.63 59.7037 1269.48 58.7296 1266.89 57.9147C1261.72 56.2868 1254.93 55.3337 1248.5 55.3337Z" fill="white" stroke="white"/>
<path d="M1277.39 62.3333C1277.91 62.3333 1278.42 62.5126 1278.8 62.848C1279.18 63.1851 1279.41 63.6575 1279.42 64.1663V74.8333C1279.42 76.6948 1278.49 78.4089 1276.91 79.9105C1275.32 81.4098 1273.06 82.7283 1270.29 83.8216C1264.74 86.0092 1257.07 87.3333 1248.5 87.3333C1239.93 87.3333 1232.26 86.0093 1226.71 83.8216C1223.94 82.7283 1221.67 81.4099 1220.09 79.9105C1218.51 78.4089 1217.58 76.6948 1217.58 74.8333V64.1663C1217.58 63.6574 1217.81 63.1851 1218.2 62.848C1218.58 62.5128 1219.09 62.3334 1219.6 62.3333C1220.12 62.3333 1220.63 62.5126 1221.01 62.848C1221.39 63.1851 1221.62 63.6574 1221.62 64.1663V74.8333C1221.62 75.9716 1222.37 77.1126 1223.88 78.2083C1225.37 79.2961 1227.52 80.2705 1230.11 81.0853C1235.27 82.7132 1242.07 83.6663 1248.5 83.6663C1254.93 83.6663 1261.72 82.7132 1266.89 81.0853C1269.48 80.2704 1271.63 79.2963 1273.12 78.2083C1274.63 77.1126 1275.37 75.9716 1275.37 74.8333V64.1663C1275.37 63.6575 1275.6 63.1851 1275.99 62.848C1276.37 62.5126 1276.88 62.3333 1277.39 62.3333Z" fill="white" stroke="white"/>
<path d="M1277.39 73C1277.91 73 1278.42 73.1793 1278.8 73.5146C1279.18 73.8518 1279.41 74.3242 1279.42 74.833V86.833C1279.42 88.6945 1278.49 90.4086 1276.91 91.9102C1275.32 93.4096 1273.06 94.7289 1270.29 95.8223C1264.74 98.0099 1257.07 99.333 1248.5 99.333C1239.93 99.333 1232.26 98.01 1226.71 95.8223C1223.94 94.7289 1221.67 93.4096 1220.09 91.9102C1218.51 90.4087 1217.58 88.6944 1217.58 86.833V74.833C1217.58 74.3241 1217.81 73.8518 1218.2 73.5146C1218.58 73.1795 1219.09 73.0001 1219.6 73C1220.12 73 1220.63 73.1793 1221.01 73.5146C1221.39 73.8518 1221.62 74.3241 1221.62 74.833V86.833C1221.62 87.9713 1222.37 89.1123 1223.88 90.208C1225.37 91.2959 1227.52 92.2711 1230.11 93.0859C1235.27 94.7139 1242.07 95.667 1248.5 95.667C1254.93 95.667 1261.72 94.7139 1266.89 93.0859C1269.48 92.2711 1271.63 91.296 1273.12 90.208C1274.63 89.1124 1275.37 87.9713 1275.37 86.833V74.833C1275.37 74.3242 1275.6 73.8518 1275.99 73.5146C1276.37 73.1793 1276.88 73 1277.39 73Z" fill="white" stroke="white"/>
<path d="M1277.39 85C1277.91 85 1278.42 85.1793 1278.8 85.5146C1279.18 85.8518 1279.41 86.3242 1279.42 86.833V98.833C1279.42 100.694 1278.49 102.409 1276.91 103.91C1275.32 105.41 1273.06 106.729 1270.29 107.822C1264.74 110.01 1257.07 111.333 1248.5 111.333C1239.93 111.333 1232.26 110.01 1226.71 107.822C1223.94 106.729 1221.67 105.41 1220.09 103.91C1218.51 102.409 1217.58 100.694 1217.58 98.833V86.833C1217.58 86.3241 1217.81 85.8518 1218.2 85.5146C1218.58 85.1795 1219.09 85.0001 1219.6 85C1220.12 85 1220.63 85.1793 1221.01 85.5146C1221.39 85.8518 1221.62 86.3241 1221.62 86.833V98.833C1221.62 99.9713 1222.37 101.112 1223.88 102.208C1225.37 103.296 1227.52 104.271 1230.11 105.086C1235.27 106.714 1242.07 107.667 1248.5 107.667C1254.93 107.667 1261.72 106.714 1266.89 105.086C1269.48 104.271 1271.63 103.296 1273.12 102.208C1274.63 101.112 1275.37 99.9713 1275.37 98.833V86.833C1275.37 86.3242 1275.6 85.8518 1275.99 85.5146C1276.37 85.1793 1276.88 85 1277.39 85Z" fill="white" stroke="white"/>
</svg>
