<svg width="22" height="22" viewBox="0 0 22 22" fill="none" xmlns="http://www.w3.org/2000/svg">
<path d="M2.29179 15.5833C1.65143 12.5613 1.65143 9.43867 2.29179 6.41667C2.37593 6.10977 2.5385 5.83007 2.76352 5.60506C2.98853 5.38004 3.26824 5.21747 3.57513 5.13333C8.49162 4.31884 13.5086 4.31884 18.4251 5.13333C18.732 5.21747 19.0117 5.38004 19.2367 5.60506C19.4618 5.83007 19.6243 6.10977 19.7085 6.41667C20.3488 9.43867 20.3488 12.5613 19.7085 15.5833C19.6243 15.8902 19.4618 16.1699 19.2367 16.3949C19.0117 16.62 18.732 16.7825 18.4251 16.8667C13.5086 17.6813 8.49161 17.6813 3.57513 16.8667C3.26824 16.7825 2.98853 16.62 2.76352 16.3949C2.5385 16.1699 2.37593 15.8902 2.29179 15.5833Z" fill="white" stroke="white" stroke-width="1.83333" stroke-linecap="round" stroke-linejoin="round"/>
<path d="M9.16675 13.75L13.7501 11L9.16675 8.25V13.75Z" fill="black" stroke="black" stroke-width="1.83333" stroke-linecap="round" stroke-linejoin="round"/>
</svg>
